<svg id="Background" xmlns="http://www.w3.org/2000/svg" width="1440" height="8000" viewBox="0 0 1440 8000">
  <defs>
    <style>
      .cls-1 {
        fill: none;
        stroke: #f1f1f1;
        stroke-width: 3px;
        fill-rule: evenodd;
        opacity: 0.18;
      }
    </style>
  </defs>
  <path id="Shape_" data-name="Shape " class="cls-1" d="M-65.138,464.421S83.324,463.033,101.071,330.49-105.477,179.907-62.2,361.979,937.086,111.623,796.547,21.064,711.019,184.4,1016.06,95.8s417.36-151.427,399.57-22.672-153.88,158.888-70.09,251.488,138.57,68.963,91.5,148.625-277.89,223.073-227.91,319.5,140.57,91.334,186.78,43.245,6.96-119.564-248.9-27.291-267.566,99-394.534,24.351-231.967-96.068-323.6-49.961-212.4,65.723-271.559,35.267S48.646,661.735,36.014,738.58s78.577,140.529,88.561,65.916S-74.372,660.909-74.372,660.909"/>
  <path id="Shape_2" data-name="Shape " class="cls-1" d="M0.279,1282.64s150.983,36.08,202.456-93.92S31.19,983.784,29.127,1179.45s1077.114-1.7,957.384-129.07-128.019,144.12,203.85,131.25,461.71-48.25,411.14,77.89-196.25,122.36-134.62,237.47,123.18,104.96,55.31,173.9-338.28,156.17-311.91,266.63,119.56,128.16,178.59,91.03,37.25-119.55-245.65-90.53-296.475,32.88-406.451-74.91-211.1-156.05-315.72-132.41-232.1,13.06-284.434-32.78S65.9,1511.57,33.685,1586.35s44.242,162.43,73.212,89.24S-58.7,1479.67-58.7,1479.67"/>
  <path id="Shape_3" data-name="Shape " class="cls-1" d="M2256.78,3633s-97.02,21.84-58.51,141.55,192.73,104.53,95.37-50.52-561.85,360.19-435.22,420.79-5.63-156.36-172.53-35.64-216.92,191.9-253.97,75.53,40.96-161.91-49.15-232.19-117.16-41.77-116.39-118.77,98.15-235.91,28.8-314.27-126.94-61.28-139.1-12.33,40.68,106.74,173.88-10.41,138.33-124.72,250.02-76.31,188.8,52.78,231.56-.73,114.68-87.63,165.08-68.9,130.7,123.46,109.91,53.73-104.84-113.4-83.15-46.02,185.09,99.4,185.09,99.4"/>
  <path id="Shape_4" data-name="Shape " class="cls-1" d="M1161.53,4352.8s-46.36,119.34,109.18,164.16,250.07-130.82,14.52-138.15-18.71,858.85,136.96,767.1-171.07-106.27-161.97,158.72,49.21,369.53-101.71,325.54-143.54-160.03-283.334-114.24-128.755,95.16-210.46,39.04S483.194,5280.7,349.682,5298.51s-156.623,91.6-113.059,139.74,143.235,33.19,113.746-193.22-33.885-237.35,98.034-321.9,191.961-163.77,165.508-247.87-11.244-185.45,44.958-225.84,225.739-50.95,136.319-78.82-196.426,30.55-108.866,55.78,239.1-126.34,239.1-126.34"/>
  <path id="Shape_5" data-name="Shape " class="cls-1" d="M-344.283,6166.22s125.5,25.27,143.075-135.64-171.637-224.03-138.6,9.31,849.414-128.38,732.4-266.07-75.458,186.72,184.07,132.45,355.679-111.66,338.14,44.56-133.139,168.79-64.127,298.7,115.769,110.59,74.442,200.68-239.2,225.74-198.827,354.24S843.31,6943.11,883.3,6891.96s8.212-146.8-209.823-79.04-228.06,73.96-333.916-41.57-194.181-161.14-272.523-120.7-180.789,42.78-230.194-5.69-88.8-213.7-100.966-120.83,63.678,188.31,73.567,97.72-165.35-213.98-165.35-213.98"/>
  <path id="Shape_6" data-name="Shape " class="cls-1" d="M2139.39,6051.41s-63.55,62.01,21.75,134.99,195.42-10.71,48.86-83.03-258.6,536.72-133.98,523.53-77.44-116.23-147.84,53.64-75.12,247.38-157.74,176.25-44.62-142.26-146.01-153.52-108.61,23.06-144.05-35.84-35.76-225.27-125.15-252.39-125.18,12.81-111.52,55.72,80.87,62.1,127.32-89.28,46.81-159.54,154.37-175,168.22-48.21,175.69-108.9,46.19-120.27,93.27-129.62,157.12,32.71,108.69-10.58-132.76-37.16-84.74,3.93,187.22-11.04,187.22-11.04"/>
  <path id="Shape_7" data-name="Shape " class="cls-1" d="M-424.586,3025.41s73.959,104.5,197.153-.5,28.855-280.74-107.218-88.33,706.008,489.43,715.361,308.97S197.7,3329.61,423.733,3468.2s335.356,162.82,215.411,264.43-212.67,31.44-251.6,173.29S395.88,4065.81,304,4102.99s-328.894.09-387.7,121.28-10.009,181.16,54.18,171.39,106.7-101.16-98.405-201.47-216.653-102.68-214.394-259.35-30.695-250.46-115.435-274.8-160.871-92.92-163.553-162.08,82.036-216.39,9.462-157.18-82.886,180.68-13.538,121.57,26.536-269.12,26.536-269.12"/>
</svg>
